#!OML:ASF X:\für Bonn\!DataBase\2005_08_11_Bastian_Final\c3d\Bastian.ASF
:FULLY-SPECIFIED
:DEGREES
76
root -3.05144 16.3403 6.5441 161.754 -24.1531 -170.191
lowerback 12.1701 -1.83461 5.17534
upperback 4.86675 -2.47217 5.10595
thorax -1.66603 -1.54974 2.75799
lowerneck 7.76634 -15.8438 -7.09052
upperneck -10.7687 -21.226 11.133
head -2.48647 -10.9224 5.00187
rclavicle 3.36567e-014 3.97569e-015
rhumerus 5.18496 -1.7559 -58.5253
rradius 107.821
rwrist -235.97
rhand -6.03742 -43.4315
rfingers 7.12502
rthumb 19.7964 -432.443
lclavicle 3.36567e-014 3.97569e-015
lhumerus 429.749 -15.68 -306.39
lradius 79.127
lwrist -142.172
lhand -13.9541 25.2274
lfingers 7.12502
lthumb 12.1733 54.8532
rfemur -20.7433 20.7227 14.2939
rtibia 41.4608
rfoot -18.8912 -7.02486
rtoes -13.2896
lfemur 12.0251 -19.7162 -15.293
ltibia 41.0025
lfoot -31.1025 -14.1911
ltoes 5.19895
77
root -3.0324 16.3087 6.47446 161.58 -24.9288 -170.11
lowerback 12.1321 -1.80083 5.3059
upperback 4.75405 -2.38329 5.04718
thorax -1.77247 -1.49447 2.61278
lowerneck 7.86188 -16.0515 -7.24401
upperneck -10.5974 -21.5155 11.3793
head -2.37901 -11.0745 5.07517
rclavicle -3.44146e-014 -6.36111e-014
rhumerus 6.39098 -2.60906 -57.5871
rradius 107.631
rwrist -235.751
rhand -6.05558 -43.881
rfingers 7.12502
rthumb 19.7789 -432.895
lclavicle -3.44146e-014 -6.36111e-014
lhumerus 430.9 -15.0629 -306.691
lradius 78.709
lwrist -142.248
lhand -13.8823 25.7027
lfingers 7.12502
lthumb 12.2426 55.3244
rfemur -20.5588 20.4572 13.9689
rtibia 41.5042
rfoot -19.2389 -7.22037
rtoes -15.4725
lfemur 12.0433 -20.2542 -15.2588
ltibia 41.3521
lfoot -31.3097 -14.4714
ltoes 4.86131
78
root -3.01258 16.2781 6.40232 161.428 -25.6949 -170.066
lowerback 12.1034 -1.76833 5.41897
upperback 4.64017 -2.29548 4.95586
thorax -1.88555 -1.43892 2.44367
lowerneck 7.93256 -16.252 -7.329
upperneck -10.4005 -21.7927 11.5861
head -2.27208 -11.2203 5.12561
rclavicle -2.69229e-014 -1.07344e-013
rhumerus 7.47984 -3.49427 -56.7028
rradius 107.487
rwrist -235.556
rhand -6.11824 -44.2845
rfingers 7.12502
rthumb 19.7187 -433.304
lclavicle -2.69229e-014 -1.07344e-013
lhumerus 432.006 -14.4548 -306.996
lradius 78.2979
lwrist -142.342
lhand -13.6624 26.2095
lfingers 7.12502
lthumb 12.4546 55.8184
rfemur -20.3772 19.885 13.7107
rtibia 41.7154
rfoot -19.5922 -7.40353
rtoes -18.0731
lfemur 12.0761 -20.7568 -15.2387
ltibia 41.6598
lfoot -31.4601 -14.7927
ltoes 4.59897
79
root -2.99244 16.2485 6.32571 161.282 -26.4373 -170.009
lowerback 12.0403 -1.733 5.52549
upperback 4.53147 -2.21041 4.88475
thorax -1.97267 -1.38605 2.29804
lowerneck 8.03742 -16.4216 -7.44748
upperneck -10.2418 -22.0333 11.8033
head -2.17977 -11.3483 5.1884
rclavicle 7.62401e-014 -7.07673e-014
rhumerus 8.50818 -4.32691 -55.8222
rradius 107.331
rwrist -235.357
rhand -6.15878 -44.7047
rfingers 7.12502
rthumb 19.6797 -433.729
lclavicle 7.62401e-014 -7.07673e-014
lhumerus 433.058 -13.86 -307.227
lradius 77.8789
lwrist -142.392
lhand -13.3209 26.6736
lfingers 7.12502
lthumb 12.7838 56.2622
rfemur -20.2245 19.1113 13.5501
rtibia 42.0668
rfoot -19.9216 -7.58584
rtoes -20.6968
lfemur 12.1293 -21.2711 -15.2014
ltibia 41.9313
lfoot -31.6104 -15.1017
ltoes 4.35477
80
root -2.97188 16.2191 6.24649 161.16 -27.1629 -169.989
lowerback 11.9652 -1.69461 5.60051
upperback 4.42448 -2.12529 4.7964
thorax -2.05087 -1.33277 2.15128
lowerneck 8.17714 -16.5705 -7.53577
upperneck -10.1216 -22.245 12.0408
head -2.10728 -11.4654 5.25946
rclavicle 1.5117e-014 1.03368e-014
rhumerus 9.44187 -5.13341 -54.9337
rradius 107.201
rwrist -235.246
rhand -6.19706 -45.141
rfingers 7.12502
rthumb 19.6429 -434.169
lclavicle 1.5117e-014 1.03368e-014
lhumerus 433.997 -13.293 -307.42
lradius 77.5064
lwrist -142.428
lhand -12.9588 27.1158
lfingers 7.12502
lthumb 13.1329 56.6823
rfemur -20.1316 18.2484 13.3836
rtibia 42.5459
rfoot -20.2657 -7.61117
rtoes -22.3656
lfemur 12.2067 -21.751 -15.1842
ltibia 42.1601
lfoot -31.7286 -15.4033
ltoes 4.22116
81
root -2.94976 16.1897 6.16378 161.056 -27.8851 -169.99
lowerback 11.8792 -1.66106 5.61347
upperback 4.31624 -2.05534 4.72357
thorax -2.12175 -1.28811 2.05714
lowerneck 8.36632 -16.6898 -7.67319
upperneck -10.0229 -22.4242 12.2932
head -2.04418 -11.5667 5.34655
rclavicle 1.07833e-014 2.8625e-014
rhumerus 10.3409 -5.88894 -54.0481
rradius 107.066
rwrist -235.196
rhand -6.2206 -45.6475
rfingers 7.12502
rthumb 19.6203 -434.677
lclavicle 1.07833e-014 2.8625e-014
lhumerus 434.765 -12.7503 -307.576
lradius 77.2564
lwrist -142.51
lhand -12.4885 27.538
lfingers 7.12502
lthumb 13.5862 57.0747
rfemur -20.0688 17.3086 13.2283
rtibia 43.104
rfoot -20.5621 -7.57144
rtoes -23.6271
lfemur 12.2887 -22.2054 -15.1644
ltibia 42.3581
lfoot -31.8597 -15.6727
ltoes 3.68443
